# xmcd
#
# Track frame offsets:
#	150
#	15612
#	32517
#	48626
#	64048
#	77559
#	82242
#	97927
#	110710
#	116790
#	139337
#
# Disc length: 2133 seconds
# Revision: 0
# Processed by: cddbd v1.5.2PL0 Copyright (c) Steve Scherf et al.
# Submitted via: dBpowerAMP V12.0
#
DISCID=9208530b
DTITLE=Graves of Valor - Salarian Gate
DYEAR=2009
DGENRE=Metal
TTITLE0=Salarian Gate
TTITLE1=Suffocation of the Last King
TTITLE2=Pestilence
TTITLE3=Bridles of Incitatus
TTITLE4=Sic Semper Tyrannis
TTITLE5=Letter on the Blind
TTITLE6=To Breathe Blood
TTITLE7=The Clever Ape
TTITLE8=Diderot
TTITLE9=Locusta
TTITLE10=No Gods Left
EXTD=
EXTT0=
EXTT1=
EXTT2=
EXTT3=
EXTT4=
EXTT5=
EXTT6=
EXTT7=
EXTT8=
EXTT9=
EXTT10=
PLAYORDER=
